<svg width="242" height="113" viewBox="0 0 242 113" fill="none" xmlns="http://www.w3.org/2000/svg">
<rect x="31" y="82" width="96" height="31" rx="15.5" fill="#37D9EF"/>
<path d="M109 101.4L103.6 95.9996L105 94.5996L109 98.5996L113 94.5996L114.4 95.9996L109 101.4Z" fill="white"/>
<rect x="51" y="93" width="40" height="10" rx="2" fill="white"/>
<rect x="137" y="82" width="76" height="31" rx="15.5" fill="#369DFF"/>
<rect x="157" y="93" width="20" height="10" rx="2" fill="white"/>
<path d="M195 101.4L189.6 95.9996L191 94.5996L195 98.5996L199 94.5996L200.4 95.9996L195 101.4Z" fill="white"/>
<rect x="35" width="172" height="31" rx="15.5" fill="#37D9EF"/>
<rect x="55" y="11" width="49" height="10" rx="2" fill="white"/>
<rect x="114" y="11" width="55" height="10" rx="2" fill="white"/>
<path d="M189 19.3996L183.6 13.9996L185 12.5996L189 16.5996L193 12.5996L194.4 13.9996L189 19.3996Z" fill="white"/>
<rect y="41" width="100" height="31" rx="15.5" fill="#369DFF"/>
<path d="M81.9996 60.3996L76.5996 54.9996L77.9996 53.5996L81.9996 57.5996L85.9996 53.5996L87.3996 54.9996L81.9996 60.3996Z" fill="white"/>
<rect x="20" y="52" width="44" height="10" rx="2" fill="white"/>
<rect x="112" y="41" width="130" height="31" rx="15.5" fill="#2CE75C"/>
<rect x="132" y="52" width="74" height="10" rx="2" fill="white"/>
<path d="M224 60.3996L218.6 54.9996L220 53.5996L224 57.5996L228 53.5996L229.4 54.9996L224 60.3996Z" fill="white"/>
</svg>
