<svg width="91" height="30" viewBox="0 0 91 30" fill="none" xmlns="http://www.w3.org/2000/svg">
<path d="M38.7045 24C44.0227 24 47.2443 20.7102 47.2443 15.2557C47.2443 9.81818 44.0227 6.54545 38.7557 6.54545H32.517V24H38.7045ZM36.2074 20.8381V9.70739H38.5597C41.8324 9.70739 43.5625 11.3778 43.5625 15.2557C43.5625 19.1506 41.8324 20.8381 38.5511 20.8381H36.2074ZM55.8246 24.2557C59.7962 24.2557 62.2678 21.5369 62.2678 17.5057C62.2678 13.4489 59.7962 10.7386 55.8246 10.7386C51.853 10.7386 49.3814 13.4489 49.3814 17.5057C49.3814 21.5369 51.853 24.2557 55.8246 24.2557ZM55.8416 21.4432C54.0092 21.4432 53.0717 19.7642 53.0717 17.4801C53.0717 15.196 54.0092 13.5085 55.8416 13.5085C57.6399 13.5085 58.5774 15.196 58.5774 17.4801C58.5774 19.7642 57.6399 21.4432 55.8416 21.4432ZM70.5433 24.2557C74.0291 24.2557 76.2195 22.2102 76.3899 19.2017H72.9638C72.7507 20.5994 71.8303 21.3835 70.5859 21.3835C68.8899 21.3835 67.7905 19.9602 67.7905 17.4545C67.7905 14.983 68.8984 13.5682 70.5859 13.5682C71.9155 13.5682 72.7678 14.446 72.9638 15.75H76.3899C76.2365 12.7244 73.9439 10.7386 70.5263 10.7386C66.5547 10.7386 64.1001 13.4915 64.1001 17.5057C64.1001 21.4858 66.5121 24.2557 70.5433 24.2557ZM89.6065 14.642C89.2827 12.2301 87.3395 10.7386 84.0327 10.7386C80.6832 10.7386 78.4759 12.2898 78.4844 14.8125C78.4759 16.7727 79.7116 18.0426 82.2685 18.554L84.5355 19.0057C85.6776 19.2358 86.1974 19.6534 86.2145 20.3097C86.1974 21.0852 85.3537 21.6392 84.0838 21.6392C82.7884 21.6392 81.9276 21.0852 81.706 20.0199L78.1349 20.2074C78.4759 22.7131 80.6065 24.2557 84.0753 24.2557C87.4673 24.2557 89.8963 22.5256 89.9048 19.9432C89.8963 18.0511 88.6605 16.9176 86.1207 16.3977L83.7514 15.9205C82.5327 15.6562 82.081 15.2386 82.0895 14.608C82.081 13.8239 82.9673 13.3125 84.0923 13.3125C85.3537 13.3125 86.1037 14.0028 86.2827 14.8466L89.6065 14.642Z" fill="#222433"/>
<path d="M20.8351 5.31486C20.7033 5.1974 20.5483 5.10915 20.38 5.05594C20.2117 5.00272 20.0341 4.98574 19.8588 5.0061L3.69219 6.87239C3.37118 6.85697 3.06843 6.71849 2.84683 6.48572C2.62523 6.25294 2.5018 5.94376 2.50217 5.62237C2.50217 5.23236 2.50217 4.64235 3.99345 4.34984C6.06349 3.94108 17.5425 2.4973 17.6587 2.4873C17.9831 2.4406 18.2762 2.2684 18.4748 2.00776C18.6735 1.74712 18.7618 1.41889 18.7208 1.09375C18.6799 0.768614 18.5129 0.472568 18.2558 0.269355C17.9987 0.0661427 17.672 -0.0279816 17.3462 0.00724819C16.8775 0.0672495 5.66474 1.47228 3.51094 1.89604C0.458376 2.4973 0.00211577 4.48859 0.00211577 5.62237V24.9978C-0.0174239 25.6597 0.0985486 26.3186 0.342912 26.9341C0.587275 27.5496 0.95487 28.1086 1.42313 28.5769C1.89138 29.0451 2.45041 29.4127 3.06589 29.6571C3.68137 29.9015 4.3403 30.0174 5.00222 29.9979C5.12722 29.9979 20.1575 28.1128 20.1575 28.1128C20.4598 28.0751 20.7379 27.9282 20.9395 27.6999C21.1412 27.4716 21.2525 27.1774 21.2526 26.8728V6.24738C21.2526 6.07131 21.2154 5.89722 21.1434 5.73652C21.0715 5.57582 20.9664 5.43213 20.8351 5.31486V5.31486Z" fill="#324FE7"/>
</svg>
