<svg width="127" height="127" viewBox="0 0 127 127" fill="none" xmlns="http://www.w3.org/2000/svg">
<circle opacity="0.1" cx="63.5" cy="63.5" r="63.5" fill="#324FE7"/>
<path d="M91.025 42.2521C91.0251 42.1578 90.9973 42.0656 90.945 41.9872C90.8928 41.9087 90.8185 41.8475 90.7315 41.8112C90.6445 41.7749 90.5487 41.7652 90.4562 41.7833C90.3637 41.8014 90.2786 41.8465 90.2117 41.9129L64.6145 67.5041C63.2603 68.8551 61.4254 69.6139 59.5125 69.6139C57.5996 69.6139 55.7647 68.8551 54.4105 67.5041L28.8163 41.9129C28.7506 41.8458 28.6662 41.8001 28.574 41.7819C28.4819 41.7637 28.3864 41.7738 28.3001 41.8109C28.2116 41.8458 28.1356 41.9066 28.0821 41.9853C28.0286 42.0639 28 42.1569 28 42.2521V73.7646C28 75.1575 28.5533 76.4934 29.5383 77.4784C30.5233 78.4633 31.8591 79.0167 33.2521 79.0167H70.875C70.9738 79.0164 71.0716 78.9967 71.1628 78.9586C71.2539 78.9205 71.3367 78.8647 71.4062 78.7946L90.8089 59.3919C90.8781 59.3225 90.9327 59.24 90.9698 59.1494C91.0069 59.0587 91.0257 58.9616 91.025 58.8637V42.2521Z" fill="#324FE7"/>
<path d="M57.1926 64.719C57.8106 65.3302 58.6448 65.673 59.514 65.673C60.3833 65.673 61.2174 65.3302 61.8354 64.719L87.2705 39.2839C87.4428 39.1112 87.5638 38.8941 87.62 38.6567C87.6762 38.4193 87.6653 38.171 87.5887 37.9394C87.2885 37.081 86.4962 37 85.7729 37H33.2521C32.5318 37 31.7215 37.081 31.4514 37.9394C31.3761 38.1711 31.366 38.4191 31.4221 38.6562C31.4782 38.8933 31.5984 39.1105 31.7695 39.2839L57.1926 64.719Z" fill="#324FE7"/>
<path d="M68.8161 99.9621L78.2489 98.0743C78.3821 98.0478 78.5057 97.9856 78.6064 97.8944C78.7071 97.8031 78.7811 97.6862 78.8205 97.5562C78.86 97.4262 78.8634 97.2879 78.8303 97.1561C78.7973 97.0243 78.7291 96.9039 78.633 96.8078L70.2027 88.3805C70.1067 88.2845 69.9865 88.2165 69.8548 88.1838C69.7232 88.151 69.5851 88.1547 69.4554 88.1944C69.3258 88.2344 69.2093 88.3084 69.118 88.4087C69.0267 88.509 68.9639 88.6319 68.9362 88.7646L67.0484 98.2064C67.0002 98.4484 67.0125 98.6987 67.0841 98.9348C67.1557 99.171 67.2845 99.3859 67.459 99.5604C67.6336 99.735 67.8484 99.8637 68.0846 99.9354C68.3208 100.007 68.571 100.019 68.8131 99.9711L68.8161 99.9621Z" fill="#324FE7"/>
<path d="M103.711 63.2725C102.237 61.8027 100.24 60.9773 98.1587 60.9773C96.0772 60.9773 94.0805 61.8027 92.6065 63.2725L72.5616 83.3205C72.4214 83.4611 72.3427 83.6516 72.3427 83.8502C72.3427 84.0488 72.4214 84.2392 72.5616 84.3799L82.6216 94.4459C82.7622 94.5861 82.9527 94.6648 83.1513 94.6648C83.3499 94.6648 83.5403 94.5861 83.681 94.4459L103.726 74.3979C104.456 73.6665 105.034 72.7985 105.428 71.8435C105.822 70.8885 106.024 69.8652 106.023 68.8321C106.022 67.799 105.817 66.7763 105.42 65.8223C105.023 64.8684 104.443 64.002 103.711 63.2725V63.2725Z" fill="#1E2B73"/>
</svg>
