<svg width="22" height="22" viewBox="0 0 22 22" fill="none" xmlns="http://www.w3.org/2000/svg">
<path fill-rule="evenodd" clip-rule="evenodd" d="M20.726 0.0626831H1.21111C0.54203 0.0626831 0 0.604713 0 1.2738V20.7896C0 21.4578 0.54203 21.9998 1.21111 21.9998H11.7181V13.5047H8.85894V10.194H11.7181V7.75256C11.7181 4.91901 13.4484 3.3761 15.9766 3.3761C17.1877 3.3761 18.2279 3.46659 18.5314 3.50681V6.46832L16.7782 6.46924C15.4035 6.46924 15.1375 7.12278 15.1375 8.0807V10.1949H18.4162L17.9894 13.5056H15.1375V21.9998H20.7278C21.3951 21.9998 21.9371 21.4578 21.9371 20.7887V1.2738C21.9371 0.604713 21.3951 0.0626831 20.726 0.0626831Z" fill="#324FE7"/>
</svg>
