<svg width="80" height="80" viewBox="0 0 80 80" fill="none" xmlns="http://www.w3.org/2000/svg">
<circle opacity="0.1" cx="40" cy="40" r="40" fill="#324FE7"/>
<rect x="22.8794" y="13.0488" width="28.0998" height="53.9024" rx="5.14181" fill="#324FE7"/>
<path d="M39.2139 62.9966H34.647C34.0173 62.9966 33.5048 62.4863 33.5048 61.8544C33.5048 61.2224 34.0151 60.7121 34.647 60.7121H39.2117C39.8415 60.7121 40.354 61.2224 40.354 61.8544C40.354 62.4863 39.8436 62.9966 39.2139 62.9966Z" fill="#EAEDFD"/>
<path d="M41.9792 18.1976H31.8794C30.8637 18.1976 29.9344 17.647 29.4806 16.7739L27.538 13.0488H46.3206L44.378 16.7739C43.9242 17.647 42.9949 18.1976 41.9792 18.1976Z" fill="#1E2B73"/>
<path d="M64.7052 36.7319H62.2711C62.0291 35.8955 61.6946 35.0888 61.2737 34.3266L62.9953 32.6063C63.1775 32.4242 63.3221 32.208 63.4207 31.97C63.5193 31.732 63.5701 31.4769 63.5701 31.2193C63.5701 30.9617 63.5193 30.7066 63.4207 30.4686C63.3221 30.2306 63.1775 30.0144 62.9953 29.8323L61.1456 27.9852C60.7779 27.6176 60.2792 27.4111 59.7593 27.4111C59.2393 27.4111 58.7407 27.6176 58.3729 27.9852L56.65 29.7068C55.8889 29.2856 55.0829 28.9511 54.2473 28.7094V26.274C54.2473 25.754 54.0407 25.2552 53.673 24.8875C53.3052 24.5197 52.8065 24.3132 52.2864 24.3132H49.672C49.1519 24.3132 48.6532 24.5197 48.2854 24.8875C47.9177 25.2552 47.7111 25.754 47.7111 26.274V28.7094C46.8752 28.9516 46.0689 29.2862 45.3071 29.7068L43.5842 27.9852C43.2164 27.6176 42.7178 27.4111 42.1978 27.4111C41.6779 27.4111 41.1792 27.6176 40.8115 27.9852L38.9618 29.8336C38.7796 30.0157 38.635 30.2319 38.5364 30.4699C38.4378 30.7079 38.387 30.963 38.387 31.2206C38.387 31.4782 38.4378 31.7333 38.5364 31.9713C38.635 32.2093 38.7796 32.4255 38.9618 32.6076L40.6847 34.3292C40.2632 35.0902 39.9287 35.8962 39.6873 36.7319H37.2532C36.7332 36.7319 36.2344 36.9385 35.8667 37.3062C35.4989 37.674 35.2924 38.1727 35.2924 38.6928V41.3072C35.2924 41.8273 35.4989 42.326 35.8667 42.6938C36.2344 43.0615 36.7332 43.2681 37.2532 43.2681H39.6873C39.9286 44.1043 40.2631 44.9107 40.6847 45.6721L38.9605 47.3963C38.5929 47.7641 38.3864 48.2627 38.3864 48.7827C38.3864 49.3026 38.5929 49.8013 38.9605 50.169L40.8089 52.0174C41.1838 52.3716 41.6801 52.569 42.1959 52.569C42.7117 52.569 43.2079 52.3716 43.5829 52.0174L45.3058 50.2958C46.068 50.7169 46.8748 51.0519 47.7111 51.2945V53.726C47.7111 53.9835 47.7618 54.2385 47.8604 54.4764C47.9589 54.7143 48.1033 54.9304 48.2854 55.1125C48.4675 55.2946 48.6837 55.439 48.9216 55.5376C49.1595 55.6361 49.4145 55.6868 49.672 55.6868H52.2864C52.8065 55.6868 53.3052 55.4803 53.673 55.1125C54.0407 54.7448 54.2473 54.246 54.2473 53.726V51.2945C55.0832 51.0523 55.8895 50.7178 56.6513 50.2971L58.3742 52.0187C58.742 52.3863 59.2406 52.5929 59.7606 52.5929C60.2805 52.5929 60.7792 52.3863 61.1469 52.0187L62.9953 50.1703C63.3629 49.8026 63.5694 49.3039 63.5694 48.784C63.5694 48.264 63.3629 47.7654 62.9953 47.3977L61.2737 45.676C61.695 44.9141 62.0296 44.1072 62.2711 43.2707H64.7052C64.9629 43.2707 65.2181 43.2199 65.4562 43.1212C65.6943 43.0225 65.9105 42.8778 66.0926 42.6955C66.2748 42.5131 66.4191 42.2966 66.5175 42.0584C66.6159 41.8202 66.6664 41.565 66.666 41.3072V38.6928C66.666 38.1727 66.4595 37.674 66.0917 37.3062C65.724 36.9385 65.2252 36.7319 64.7052 36.7319ZM50.9792 46.5362C49.6865 46.5362 48.4228 46.1528 47.3479 45.4346C46.273 44.7164 45.4353 43.6956 44.9406 42.5013C44.4458 41.307 44.3164 39.9927 44.5686 38.7249C44.8208 37.457 45.4433 36.2923 46.3574 35.3782C47.2715 34.4641 48.4362 33.8416 49.7041 33.5894C50.972 33.3372 52.2862 33.4666 53.4805 33.9614C54.6748 34.4561 55.6956 35.2938 56.4138 36.3687C57.132 37.4436 57.5154 38.7073 57.5154 40C57.5133 41.7329 56.824 43.3942 55.5987 44.6195C54.3734 45.8448 52.7121 46.5341 50.9792 46.5362V46.5362Z" fill="#1E2B73"/>
<circle cx="50.9792" cy="40" r="7.17064" fill="#1E2B73"/>
<circle cx="50.9793" cy="40" r="5.69593" fill="#EAEDFD"/>
</svg>
