<svg width="80" height="80" viewBox="0 0 80 80" fill="none" xmlns="http://www.w3.org/2000/svg">
<circle opacity="0.1" cx="40" cy="40" r="40" fill="#324FE7"/>
<path d="M40 14C34.8577 14 29.8309 15.5249 25.5552 18.3818C21.2795 21.2387 17.947 25.2993 15.9791 30.0502C14.0113 34.8011 13.4964 40.0288 14.4996 45.0723C15.5028 50.1158 17.9791 54.7486 21.6152 58.3848C25.2514 62.0209 29.8842 64.4972 34.9277 65.5004C39.9712 66.5036 45.1989 65.9887 49.9498 64.0209C54.7007 62.053 58.7613 58.7205 61.6182 54.4448C64.4751 50.1691 66 45.1423 66 40C65.9925 33.1067 63.2509 26.4978 58.3765 21.6235C53.5022 16.7491 46.8933 14.0075 40 14V14ZM40 55.1667C39.3572 55.1667 38.7289 54.976 38.1944 54.6189C37.6599 54.2618 37.2434 53.7542 36.9974 53.1604C36.7514 52.5665 36.6871 51.9131 36.8125 51.2826C36.9379 50.6522 37.2474 50.0731 37.7019 49.6186C38.1564 49.164 38.7355 48.8545 39.366 48.7291C39.9964 48.6037 40.6499 48.6681 41.2437 48.9141C41.8376 49.16 42.3452 49.5766 42.7023 50.1111C43.0594 50.6455 43.25 51.2739 43.25 51.9167C43.25 52.7786 42.9076 53.6053 42.2981 54.2148C41.6886 54.8242 40.862 55.1667 40 55.1667ZM43.4667 41.9933C43.0801 42.162 42.7512 42.4399 42.5203 42.7928C42.2894 43.1457 42.1665 43.5584 42.1667 43.9802C42.1667 44.5548 41.9384 45.1059 41.5321 45.5122C41.1257 45.9186 40.5746 46.1468 40 46.1468C39.4254 46.1468 38.8743 45.9186 38.4679 45.5122C38.0616 45.1059 37.8333 44.5548 37.8333 43.9802C37.8331 42.7152 38.202 41.4778 38.8948 40.4194C39.5875 39.361 40.574 38.5278 41.7333 38.0218C42.4495 37.7093 43.0678 37.2089 43.5228 36.5737C43.9778 35.9385 44.2526 35.1921 44.3181 34.4135C44.3836 33.6349 44.2374 32.8531 43.8949 32.1508C43.5524 31.4485 43.0264 30.8519 42.3725 30.4241C41.7187 29.9963 40.9614 29.7533 40.1807 29.7207C39.4 29.6881 38.6251 29.8672 37.9379 30.2391C37.2507 30.6109 36.6768 31.1616 36.277 31.8329C35.8771 32.5042 35.6663 33.2711 35.6667 34.0525C35.6667 34.6271 35.4384 35.1782 35.0321 35.5846C34.6257 35.9909 34.0746 36.2192 33.5 36.2192C32.9254 36.2192 32.3743 35.9909 31.9679 35.5846C31.5616 35.1782 31.3333 34.6271 31.3333 34.0525C31.3333 32.49 31.7557 30.9565 32.5558 29.6144C33.356 28.2723 34.504 27.1715 35.8786 26.4284C37.2531 25.6853 38.8029 25.3277 40.3641 25.3934C41.9252 25.459 43.4396 25.9455 44.7469 26.8013C46.0542 27.6571 47.1058 28.8504 47.7904 30.255C48.4751 31.6595 48.7673 33.223 48.6361 34.78C48.5049 36.337 47.9552 37.8296 47.0452 39.0998C46.1352 40.3699 44.8987 41.3705 43.4667 41.9955V41.9933Z" fill="#324FE7"/>
</svg>
