<svg width="886" height="508" viewBox="0 0 886 508" fill="none" xmlns="http://www.w3.org/2000/svg">
<rect x="123.131" width="690.882" height="460.623" rx="40" transform="rotate(4 123.131 0)" fill="#386C5F"/>
<rect x="580" y="210" width="306" height="87" rx="40" fill="#72EDC2"/>
<g filter="url(#filter0_i_552_5435)">
<rect x="14" y="80" width="306" height="87" rx="40" fill="#D9D9D9"/>
</g>
<path d="M577.673 248.969C577.932 248.874 578.065 248.586 577.969 248.327L576.413 244.105C576.318 243.845 576.031 243.713 575.771 243.808C575.512 243.904 575.38 244.191 575.475 244.45L576.858 248.204L573.105 249.587C572.845 249.682 572.713 249.969 572.808 250.229C572.904 250.488 573.191 250.62 573.45 250.525L577.673 248.969ZM314.54 132.696C332.322 174.396 355.357 201.475 380.504 218.888C405.649 236.298 432.875 244.021 459.005 247.059C485.129 250.096 510.177 248.452 530.962 247.116C541.362 246.448 550.681 245.858 558.551 245.964C566.432 246.07 572.787 246.876 577.29 248.954L577.71 248.046C573.004 245.874 566.469 245.071 558.564 244.964C550.648 244.857 541.286 245.451 530.898 246.118C510.104 247.454 485.142 249.091 459.12 246.066C433.105 243.041 406.049 235.358 381.074 218.065C356.101 200.775 333.178 173.854 315.46 132.304L314.54 132.696Z" fill="black"/>
<g filter="url(#filter1_i_552_5435)">
<rect y="272" width="306" height="87" rx="40" fill="#D9D9D9"/>
</g>
<path d="M304.5 326C304.5 326 369.5 328 393 337C416.5 346 438 384 509 326" stroke="black"/>
<defs>
<filter id="filter0_i_552_5435" x="14" y="80" width="306" height="91" filterUnits="userSpaceOnUse" color-interpolation-filters="sRGB">
<feFlood flood-opacity="0" result="BackgroundImageFix"/>
<feBlend mode="normal" in="SourceGraphic" in2="BackgroundImageFix" result="shape"/>
<feColorMatrix in="SourceAlpha" type="matrix" values="0 0 0 0 0 0 0 0 0 0 0 0 0 0 0 0 0 0 127 0" result="hardAlpha"/>
<feOffset dy="4"/>
<feGaussianBlur stdDeviation="2"/>
<feComposite in2="hardAlpha" operator="arithmetic" k2="-1" k3="1"/>
<feColorMatrix type="matrix" values="0 0 0 0 0 0 0 0 0 0 0 0 0 0 0 0 0 0 0.25 0"/>
<feBlend mode="normal" in2="shape" result="effect1_innerShadow_552_5435"/>
</filter>
<filter id="filter1_i_552_5435" x="0" y="272" width="306" height="91" filterUnits="userSpaceOnUse" color-interpolation-filters="sRGB">
<feFlood flood-opacity="0" result="BackgroundImageFix"/>
<feBlend mode="normal" in="SourceGraphic" in2="BackgroundImageFix" result="shape"/>
<feColorMatrix in="SourceAlpha" type="matrix" values="0 0 0 0 0 0 0 0 0 0 0 0 0 0 0 0 0 0 127 0" result="hardAlpha"/>
<feOffset dy="4"/>
<feGaussianBlur stdDeviation="2"/>
<feComposite in2="hardAlpha" operator="arithmetic" k2="-1" k3="1"/>
<feColorMatrix type="matrix" values="0 0 0 0 0 0 0 0 0 0 0 0 0 0 0 0 0 0 0.25 0"/>
<feBlend mode="normal" in2="shape" result="effect1_innerShadow_552_5435"/>
</filter>
</defs>
</svg>
