<svg width="80" height="80" viewBox="0 0 80 80" fill="none" xmlns="http://www.w3.org/2000/svg">
<circle opacity="0.1" cx="40" cy="40" r="40" fill="#324FE7"/>
<path d="M28.4227 24.9866L45.3495 16.362C46.8258 15.6098 48.6323 16.1968 49.3845 17.673L57.2151 33.0414L37.6153 43.028L28.4227 24.9866Z" fill="#677BE7"/>
<path d="M20.1556 32.3342L31.8516 17.3641C32.8717 16.0584 34.757 15.827 36.0626 16.847L59.0309 34.7918L45.488 52.126L20.1556 32.3342Z" fill="#1E2B73"/>
<path d="M21.1575 39.0906L32.8534 24.1204C33.8735 22.8148 35.7588 22.5833 37.0645 23.6034L56.1354 38.5032L42.5925 55.8374L21.1575 39.0906Z" fill="#677BE7"/>
<rect x="15.4218" y="30.3354" width="44.3872" height="34.6646" rx="5" fill="#324FE7"/>
<rect x="20.9193" y="38.1656" width="2.64675" height="20.7432" rx="1.32337" fill="#1E2B73"/>
<path d="M47.9336 47.6677C47.9336 44.9785 50.1136 42.7984 52.8029 42.7984H63.3453C64.0262 42.7984 64.5782 43.3504 64.5782 44.0313V51.5948C64.5782 52.1151 64.1564 52.537 63.6361 52.537H52.8029C50.1136 52.537 47.9336 50.3569 47.9336 47.6677Z" fill="#1E2B73"/>
<circle cx="52.4892" cy="47.6677" r="1.3797" fill="#324FE7"/>
</svg>
