<svg width="24" height="25" viewBox="0 0 24 25" fill="none" xmlns="http://www.w3.org/2000/svg">
<path d="M8.00097 12.3979C8.00097 10.1889 9.79135 8.39763 12.0005 8.39763C14.2096 8.39763 16.001 10.1889 16.001 12.3979C16.001 14.607 14.2096 16.3983 12.0005 16.3983C9.79135 16.3983 8.00097 14.607 8.00097 12.3979ZM5.83836 12.3979C5.83836 15.8012 8.59712 18.5598 12.0005 18.5598C15.4039 18.5598 18.1626 15.8012 18.1626 12.3979C18.1626 8.99472 15.4039 6.23608 12.0005 6.23608C8.59712 6.23608 5.83836 8.99472 5.83836 12.3979ZM16.9664 5.99181C16.9664 6.78664 17.6111 7.4322 18.4069 7.4322C19.2017 7.4322 19.8473 6.78664 19.8473 5.99181C19.8473 5.19698 19.2027 4.55239 18.4069 4.55239C17.6111 4.55239 16.9664 5.19698 16.9664 5.99181ZM7.15182 22.1656C5.98183 22.1123 5.34594 21.9175 4.9233 21.7527C4.36302 21.5346 3.96365 21.2748 3.54295 20.8551C3.12323 20.4354 2.86247 20.0361 2.64534 19.4758C2.48055 19.0532 2.28571 18.4173 2.2324 17.2474C2.17424 15.9824 2.16261 15.6025 2.16261 12.3979C2.16261 9.19343 2.17521 8.81443 2.2324 7.54851C2.28571 6.37856 2.48152 5.74367 2.64534 5.32008C2.86344 4.75982 3.12323 4.36047 3.54295 3.93979C3.96268 3.52008 4.36205 3.25934 4.9233 3.04221C5.34594 2.87743 5.98183 2.6826 7.15182 2.62929C8.41682 2.57113 8.7968 2.5595 12.0005 2.5595C15.2051 2.5595 15.5842 2.5721 16.8501 2.62929C18.0201 2.6826 18.655 2.8784 19.0786 3.04221C19.6389 3.25934 20.0383 3.52008 20.459 3.93979C20.8787 4.3595 21.1385 4.75982 21.3566 5.32008C21.5214 5.7427 21.7162 6.37856 21.7695 7.54851C21.8277 8.81443 21.8393 9.19343 21.8393 12.3979C21.8393 15.6015 21.8277 15.9815 21.7695 17.2474C21.7162 18.4173 21.5204 19.0532 21.3566 19.4758C21.1385 20.0361 20.8787 20.4354 20.459 20.8551C20.0393 21.2748 19.6389 21.5346 19.0786 21.7527C18.656 21.9175 18.0201 22.1123 16.8501 22.1656C15.5851 22.2238 15.2051 22.2354 12.0005 22.2354C8.7968 22.2354 8.41682 22.2238 7.15182 22.1656V22.1656ZM7.05295 0.470647C5.77535 0.528805 4.90294 0.73139 4.14007 1.028C3.35102 1.3343 2.68218 1.74528 2.0143 2.41217C1.34739 3.07905 0.936387 3.74787 0.630074 4.53785C0.333455 5.3007 0.130862 6.17307 0.0727008 7.45061C0.0135708 8.7301 0 9.13914 0 12.3979C0 15.6568 0.0135708 16.0658 0.0727008 17.3453C0.130862 18.6228 0.333455 19.4952 0.630074 20.258C0.936387 21.0471 1.34642 21.7169 2.0143 22.3837C2.68121 23.0506 3.35005 23.4606 4.14007 23.7679C4.90391 24.0645 5.77535 24.2671 7.05295 24.3253C8.33346 24.3834 8.74155 24.3979 12.0005 24.3979C15.2604 24.3979 15.6685 24.3844 16.948 24.3253C18.2256 24.2671 19.098 24.0645 19.8609 23.7679C20.6499 23.4606 21.3188 23.0506 21.9867 22.3837C22.6536 21.7169 23.0636 21.0471 23.3709 20.258C23.6675 19.4952 23.8711 18.6228 23.9283 17.3453C23.9864 16.0648 24 15.6568 24 12.3979C24 9.13914 23.9864 8.7301 23.9283 7.45061C23.8701 6.17307 23.6675 5.3007 23.3709 4.53785C23.0636 3.74884 22.6536 3.08002 21.9867 2.41217C21.3198 1.74528 20.6499 1.3343 19.8619 1.028C19.098 0.73139 18.2256 0.527836 16.949 0.470647C15.6695 0.412489 15.2604 0.397949 12.0015 0.397949C8.74155 0.397949 8.33346 0.411519 7.05295 0.470647" fill="#324FE7"/>
</svg>
