<svg width="26" height="24" viewBox="0 0 26 24" fill="none" xmlns="http://www.w3.org/2000/svg">
<path fill-rule="evenodd" clip-rule="evenodd" d="M0.95459 2.78779C0.95459 1.97974 1.23612 1.3131 1.79914 0.787897C2.36217 0.262665 3.09414 6.10352e-05 3.99499 6.10352e-05C4.87977 6.10352e-05 5.59561 0.258617 6.14257 0.775776C6.7056 1.30908 6.98712 2.00398 6.98712 2.86051C6.98712 3.63623 6.71365 4.28264 6.1667 4.7998C5.60367 5.3331 4.86367 5.59976 3.94673 5.59976H3.9226C3.03782 5.59976 2.32197 5.3331 1.77501 4.7998C1.22806 4.2665 0.95459 3.59582 0.95459 2.78779ZM1.26765 23.9995V7.8064H6.62454V23.9995H1.26765ZM14.9501 23.9988H9.59325C9.62542 19.1182 9.64151 15.3285 9.64151 12.6297C9.64151 9.93085 9.62542 8.32287 9.59325 7.80573H14.9501V10.1086L14.926 10.1571H14.9501V10.1086C16.1084 8.31479 17.7251 7.41787 19.8003 7.41787C21.6503 7.41787 23.1383 8.03602 24.2644 9.27232C25.3905 10.5086 25.9535 12.3226 25.9535 14.7144V23.9988H20.5966V15.3447C20.5966 12.9044 19.6957 11.6843 17.894 11.6843C17.2023 11.6843 16.6272 11.8742 16.1687 12.254C15.7102 12.6337 15.3684 13.0984 15.1432 13.6478C15.0145 13.9549 14.9501 14.3912 14.9501 14.9569V23.9988Z" fill="#324FE7"/>
</svg>
