<svg width="80" height="80" viewBox="0 0 80 80" fill="none" xmlns="http://www.w3.org/2000/svg">
<circle opacity="0.1" cx="40" cy="40" r="40" fill="#324FE7"/>
<path d="M43.7913 32.4168C43.7913 31.4112 43.3919 30.4468 42.6808 29.7357C41.9697 29.0246 41.0053 28.6251 39.9997 28.6251C38.9941 28.6251 38.0296 29.0246 37.3186 29.7357C36.6075 30.4468 36.208 31.4112 36.208 32.4168V35.6668C36.208 35.8104 36.2651 35.9482 36.3667 36.0498C36.4682 36.1514 36.606 36.2085 36.7497 36.2085H43.2497C43.3933 36.2085 43.5311 36.1514 43.6327 36.0498C43.7343 35.9482 43.7913 35.8104 43.7913 35.6668V32.4168Z" fill="#354FE7"/>
<path d="M39.8827 14.0002C34.7405 14.0233 29.7206 15.5709 25.4579 18.447C21.1951 21.3232 17.881 25.3988 15.9346 30.1584C13.9881 34.9181 13.4968 40.1481 14.5227 45.187C15.5486 50.2259 18.0457 54.8475 21.6982 58.4672C25.3506 62.0869 29.9945 64.5423 35.0424 65.5229C40.0903 66.5034 45.3157 65.965 50.0576 63.9758C54.7996 61.9866 58.8452 58.6359 61.6829 54.3474C64.5205 50.059 66.0228 45.0254 65.9997 39.8831C65.9613 32.9898 63.1899 26.3932 58.2937 21.5408C53.3974 16.6884 46.7761 13.9765 39.8827 14.0002V14.0002ZM30.2497 50.294V38.3773C30.2497 37.8027 30.478 37.2516 30.8843 36.8452C31.2907 36.4389 31.8418 36.2106 32.4164 36.2106H32.9581V32.4168C32.9581 30.5493 33.7 28.7582 35.0205 27.4376C36.3411 26.117 38.1322 25.3752 39.9997 25.3752C41.8673 25.3752 43.6584 26.117 44.979 27.4376C46.2995 28.7582 47.0414 30.5493 47.0414 32.4168V36.2085H47.5831C48.1577 36.2085 48.7088 36.4368 49.1151 36.8431C49.5215 37.2494 49.7497 37.8005 49.7497 38.3751V50.2918C49.7497 50.8664 49.5215 51.4176 49.1151 51.8239C48.7088 52.2302 48.1577 52.4585 47.5831 52.4585H32.4164C31.8422 52.4585 31.2914 52.2305 30.8851 51.8246C30.4788 51.4188 30.2503 50.8682 30.2497 50.294Z" fill="#354FE7"/>
<path d="M39.9997 48.1273C41.4955 48.1273 42.708 46.9147 42.708 45.419C42.708 43.9232 41.4955 42.7106 39.9997 42.7106C38.5039 42.7106 37.2914 43.9232 37.2914 45.419C37.2914 46.9147 38.5039 48.1273 39.9997 48.1273Z" fill="#354FE7"/>
</svg>
