<svg width="48" height="48" viewBox="0 0 48 48" fill="none" xmlns="http://www.w3.org/2000/svg">
<circle cx="24" cy="24" r="24" fill="#F2F3FD"/>
<path d="M27.2423 35.0672L27.2554 35.0764C28.3887 35.798 29.7344 36.1114 31.0699 35.9647C32.4055 35.818 33.651 35.2201 34.6007 34.2697L35.4258 33.4447C35.6086 33.262 35.7536 33.045 35.8526 32.8062C35.9515 32.5674 36.0025 32.3115 36.0025 32.053C36.0025 31.7945 35.9515 31.5386 35.8526 31.2998C35.7536 31.061 35.6086 30.844 35.4258 30.6613L31.9459 27.1841C31.7632 27.0013 31.5462 26.8562 31.3075 26.7573C31.0687 26.6583 30.8127 26.6074 30.5542 26.6074C30.2958 26.6074 30.0398 26.6583 29.801 26.7573C29.5622 26.8562 29.3453 27.0013 29.1626 27.1841C28.7936 27.5529 28.2932 27.7602 27.7715 27.7602C27.2498 27.7602 26.7495 27.5529 26.3805 27.1841L20.8164 21.6187C20.4476 21.2497 20.2404 20.7494 20.2404 20.2277C20.2404 19.706 20.4476 19.2056 20.8164 18.8366C20.9992 18.6539 21.1443 18.437 21.2432 18.1982C21.3422 17.9594 21.3931 17.7034 21.3931 17.445C21.3931 17.1865 21.3422 16.9305 21.2432 16.6917C21.1443 16.453 20.9992 16.236 20.8164 16.0533L17.3379 12.5761C16.9689 12.2072 16.4686 12 15.9468 12C15.4251 12 14.9248 12.2072 14.5558 12.5761L13.7295 13.4011C12.7793 14.351 12.1816 15.5966 12.0352 16.9321C11.8887 18.2677 12.2023 19.6132 12.9241 20.7464L12.932 20.7596C16.7439 26.3994 21.6017 31.2563 27.2423 35.0672V35.0672Z" stroke="#324FE7" stroke-width="1.5" stroke-linecap="round" stroke-linejoin="round"/>
</svg>
