<svg width="28" height="24" viewBox="0 0 28 24" fill="none" xmlns="http://www.w3.org/2000/svg">
<path fill-rule="evenodd" clip-rule="evenodd" d="M27.9131 3.70657C26.8879 4.16921 25.7861 4.48078 24.6297 4.62122C25.8105 3.90249 26.7172 2.7636 27.1433 1.40638C26.0392 2.07201 24.8155 2.55588 23.5128 2.81671C22.4714 1.68726 20.9841 0.981506 19.3401 0.981506C15.6492 0.981506 12.9371 4.48196 13.7707 8.11578C9.02095 7.87384 4.80877 5.56066 1.98865 2.04486C0.490933 4.65663 1.21193 8.07329 3.75688 9.80345C2.8211 9.77277 1.93873 9.51195 1.16897 9.07645C1.10627 11.7685 3.00454 14.287 5.75384 14.8476C4.94925 15.0695 4.06804 15.1214 3.17173 14.9467C3.89853 17.2552 6.00926 18.9346 8.51242 18.9818C6.10911 20.8973 3.08117 21.7529 0.048584 21.3894C2.57845 23.0381 5.58433 24 8.81197 24C19.426 24 25.4227 14.8877 25.0604 6.71489C26.1774 5.89465 27.1468 4.87142 27.9131 3.70657Z" fill="#324FE7"/>
</svg>
