<svg width="80" height="80" viewBox="0 0 80 80" fill="none" xmlns="http://www.w3.org/2000/svg">
<circle opacity="0.1" cx="40" cy="40" r="40" fill="#324FE7"/>
<path d="M56.8444 53.2628C56.8444 53.542 56.9553 53.8098 57.1527 54.0072C57.3502 54.2047 57.6179 54.3156 57.8972 54.3156H63.8371C64.0095 54.3155 64.1793 54.273 64.3315 54.1919C64.4837 54.1109 64.6136 53.9936 64.7099 53.8506C64.8061 53.7075 64.8658 53.543 64.8836 53.3715C64.9014 53.2 64.8768 53.0267 64.812 52.8669C64.1872 51.3056 63.1538 49.9411 61.8201 48.9167C60.4863 47.8924 58.9015 47.2458 57.2318 47.0449C57.0571 47.0239 56.88 47.0469 56.7165 47.1119C56.5531 47.1769 56.4085 47.2819 56.2961 47.4172C56.1836 47.5524 56.1068 47.7137 56.0728 47.8863C56.0387 48.0589 56.0484 48.2373 56.1011 48.4052C56.5938 49.9773 56.8444 51.6153 56.8444 53.2628V53.2628Z" fill="#1E2B73"/>
<path d="M24.9803 48.3146C25.031 48.1569 25.0438 47.9894 25.0175 47.8258C24.9913 47.6622 24.9268 47.5071 24.8294 47.3732C24.7319 47.2392 24.6042 47.1301 24.4566 47.0548C24.3091 46.9794 24.1458 46.94 23.9801 46.9397H23.9549C22.0687 46.9406 20.2259 47.5057 18.6635 48.5624C17.101 49.619 15.8903 51.1189 15.1871 52.8691C15.1227 53.0289 15.0984 53.2021 15.1166 53.3735C15.1347 53.5449 15.1946 53.7092 15.2911 53.8521C15.3875 53.9949 15.5176 54.1118 15.6698 54.1927C15.822 54.2735 15.9918 54.3157 16.1641 54.3156H23.1547C23.434 54.3156 23.7017 54.2047 23.8992 54.0072C24.0966 53.8098 24.2075 53.542 24.2075 53.2628C24.2068 51.5833 24.4675 49.9139 24.9803 48.3146V48.3146Z" fill="#677BE7"/>
<path d="M35.4306 40.2248C35.5125 40.275 35.5791 40.3467 35.6232 40.4321C35.6673 40.5175 35.6872 40.6134 35.6807 40.7093C35.6742 40.8052 35.6415 40.8974 35.5863 40.9761C35.5311 41.0548 35.4554 41.1168 35.3674 41.1555C32.9948 42.1685 30.9718 43.8559 29.5495 46.0081C28.1271 48.1604 27.3679 50.6829 27.3661 53.2627C27.3661 53.542 27.477 53.8097 27.6744 54.0072C27.8719 54.2046 28.1397 54.3155 28.4189 54.3155H52.6334C52.9126 54.3155 53.1804 54.2046 53.3778 54.0072C53.5752 53.8097 53.6862 53.542 53.6862 53.2627C53.6818 50.6791 52.9178 48.1537 51.4891 46.001C50.0604 43.8483 48.0302 42.1632 45.6512 41.1555C45.5622 41.1169 45.4856 41.0546 45.4297 40.9753C45.3738 40.8961 45.3408 40.803 45.3343 40.7062C45.3278 40.6095 45.348 40.5128 45.3927 40.4268C45.4375 40.3408 45.505 40.2687 45.588 40.2185C47.466 39.103 48.9255 37.4014 49.742 35.3754C50.5585 33.3494 50.6868 31.1113 50.1071 29.0053C49.5274 26.8993 48.2718 25.0421 46.5335 23.7194C44.7953 22.3966 42.6705 21.6816 40.4862 21.6844C38.3019 21.6871 36.179 22.4074 34.444 23.7344C32.709 25.0615 31.4581 26.9218 30.8836 29.0292C30.3091 31.1367 30.443 33.3745 31.2645 35.3984C32.086 37.4223 33.5498 39.1203 35.4306 40.2311V40.2248ZM34.7357 31.6529C34.7358 31.2547 34.7803 30.8578 34.8684 30.4695C34.9049 30.307 34.9795 30.1555 35.0861 30.0275C35.1926 29.8994 35.328 29.7984 35.4811 29.7329C35.6342 29.6673 35.8007 29.639 35.9669 29.6503C36.1331 29.6616 36.2942 29.7122 36.437 29.7979C38.4552 31.0129 40.7666 31.6542 43.1223 31.6529C43.7383 31.6523 44.3534 31.6066 44.9626 31.516C45.1272 31.4914 45.2952 31.5061 45.4529 31.5589C45.6106 31.6118 45.7536 31.7012 45.8701 31.82C45.9866 31.9387 46.0732 32.0834 46.123 32.2421C46.1728 32.4008 46.1843 32.5691 46.1565 32.7331C45.8889 34.1429 45.1048 35.4021 43.9576 36.2642C42.8104 37.1263 41.3828 37.5292 39.9542 37.3941C38.5256 37.2589 37.1988 36.5955 36.2336 35.5336C35.2684 34.4718 34.7343 33.0879 34.7357 31.6529V31.6529Z" fill="#324FE7"/>
<path d="M56.0443 44.8404C57.2534 44.8478 58.4347 44.4789 59.4247 43.7848C60.4147 43.0907 61.1642 42.1059 61.5693 40.9667C61.9745 39.8276 62.0152 38.5906 61.6859 37.4273C61.3566 36.264 60.6735 35.2319 59.7314 34.4742C58.7892 33.7165 57.6347 33.2706 56.4278 33.1985C55.2209 33.1263 54.0215 33.4314 52.9957 34.0714C51.97 34.7114 51.1688 35.6547 50.7032 36.7705C50.2376 37.8863 50.1306 39.1193 50.3971 40.2986C50.6927 41.5793 51.4102 42.7234 52.4344 43.5472C53.4587 44.3709 54.7301 44.8264 56.0443 44.8404Z" fill="#1E2B73"/>
<path d="M23.955 44.8404C27.1529 44.8404 29.7454 42.2479 29.7454 39.0499C29.7454 35.852 27.1529 33.2595 23.955 33.2595C20.757 33.2595 18.1646 35.852 18.1646 39.0499C18.1646 42.2479 20.757 44.8404 23.955 44.8404Z" fill="#677BE7"/>
<circle cx="40.5975" cy="33.9545" r="7.77637" fill="#324FE7"/>
</svg>
