<svg xmlns="http://www.w3.org/2000/svg" viewBox="0 0 130 130"><defs><style>.cls-1{fill:#999;stroke:#fff;stroke-miterlimit:10;stroke-width:2px;}.cls-2{fill:#72edc2;}</style></defs><g id="Layer_1" data-name="Layer 1"><circle class="cls-1" cx="65" cy="65" r="61.72"/><path class="cls-2" d="M64.33,48A15.46,15.46,0,0,0,72.4,61.31a27.44,27.44,0,0,0,7.18,3.18c.2.06.58.17,1.12.3a23,23,0,0,1-10.17,7c-.48,11.65-3.74,19.26-9.69,22.65-.15,1.31-.72,4.17-2.79,4.17h0c-1.1,0-4.8-.29-6.43-3.43a11.43,11.43,0,0,1-1.14-3,1.79,1.79,0,0,1,.74-1.79,3.82,3.82,0,0,1,3.1-.82,9.43,9.43,0,0,0,4.24-7.49,31.32,31.32,0,0,0-.34-7c-2.46,1.16-5.63,1.9-11.71.38a37.17,37.17,0,0,0-3.17,16.27,6.08,6.08,0,0,1,1.42,4.48,1.79,1.79,0,0,1-1.13,1.6,12.4,12.4,0,0,1-3.83.76A9.64,9.64,0,0,1,35.61,98a1.8,1.8,0,0,1-1.09-1.54,7.31,7.31,0,0,1,1.34-4.06c0-1.39-.22-7.4-.63-11.33s-1.76-10.57-2-11.94C32,67.91,26.29,61.52,26.37,54.4c.09-7.76,3.72-11.21,3.88-11.35s6.47-6.69,14.28-8a48.85,48.85,0,0,1,14.2-.69l.93.06c3.17.22,5.47-.54,8.37-1.5,1-.34,2.08-.69,3.3-1a12.38,12.38,0,0,1,8.81.61c.13,0,.53.2,1.12.39a34.45,34.45,0,0,0-5.9,1.23C67.07,36.54,64.23,42.89,64.33,48Z"/><path class="cls-2" d="M108.38,64.67c-.06-.46-1.52-11.36-2.88-16.17-.16-.59-.32-1.21-.49-1.85-1.2-4.67-2.83-11-9.29-12.36a32.87,32.87,0,0,0-6.47,0,11.93,11.93,0,0,1-2.06,0A2.73,2.73,0,0,1,87.6,36v.09c0,.47-.4,4.69,1.17,7.37.57,1,1.26,2,1.93,2.93,1.88,2.69,4,5.67,4.31,9.3a14.67,14.67,0,0,1-.25,5.12,7.06,7.06,0,0,1,3.69,2.47.92.92,0,0,0,.69.4.88.88,0,0,0,.74-.3l.1-.11c1.11,3.77,2.84,10.44,2.92,15.69.11,8.25-.53,10.52-3,10.56-2,0-3.19.21-3.62,1.06A1.47,1.47,0,0,0,96.36,92a2.21,2.21,0,0,0-.28,2.68c.6.92,2.3,1.39,3.58,1.5a6.91,6.91,0,0,0,5.74-1.88,11.31,11.31,0,0,0,3-6.33V64.79A.49.49,0,0,0,108.38,64.67ZM99,46.11a1.32,1.32,0,1,1,1.31-1.31A1.32,1.32,0,0,1,99,46.11Z"/><path class="cls-2" d="M84.28,74.41c-.67,7.49-4,15.54-4.92,17.71a6,6,0,0,1,1.46,3,1.75,1.75,0,0,1-1,1.81,10,10,0,0,1-4.06,1h-.09a8.81,8.81,0,0,1-4.06-1.06,1.74,1.74,0,0,1-.94-1.63,4.53,4.53,0,0,1,1.78-3.41A36.6,36.6,0,0,0,72.68,73a25.33,25.33,0,0,0,9.39-7l.62-.73,1.45.25A37.16,37.16,0,0,1,84.28,74.41Z"/><path class="cls-2" d="M32.19,91.55a6.09,6.09,0,0,1,.07,3.33,1.76,1.76,0,0,1-1.34,1.31,9.7,9.7,0,0,1-2.11.22,13.76,13.76,0,0,1-4.94-1,1.72,1.72,0,0,1-1.1-1.55A8.56,8.56,0,0,1,25,88.54c.46-1.34,3.28-9.5,4.2-11.75.51-1.25,1.4-4.42,2.11-7.09l.26.29c.57,2.75,1.59,8.06,1.92,11.27.24,2.37.41,5.57.51,8.09A12,12,0,0,1,32.19,91.55Z"/><path class="cls-2" d="M91.73,62.78a4.71,4.71,0,0,1-3.52,1.32l-.63,0A38.92,38.92,0,0,1,80,62.75a25.58,25.58,0,0,1-6.73-3A13.69,13.69,0,0,1,66.13,48c-.09-4.47,2.42-10,9.74-12.15,6.7-2,9.13-1.09,9.38-1a.91.91,0,0,1,.56.94c0,.05-.59,5.15,1.4,8.55.62,1,1.35,2.1,2.05,3.11,1.79,2.56,3.65,5.22,3.95,8.38C93.53,59.17,93.05,61.44,91.73,62.78Z"/><path class="cls-2" d="M28.42,66l-.08.26c-.19.65-.62,1.71-1.13,2.93A37.06,37.06,0,0,0,25.43,74a11.47,11.47,0,0,0,.08,4.18.9.9,0,0,1-.31.9.94.94,0,0,1-.57.2.85.85,0,0,1-.38-.09l-1.35-.63a.88.88,0,0,1-.51-.7c-.7-5.49,1.94-13.24,2.24-14.1a20.54,20.54,0,0,0,.74-4.15A25.74,25.74,0,0,0,28.42,66Z"/><path class="cls-2" d="M26.27,82a10.08,10.08,0,0,1-2.8,3.82.89.89,0,0,1-.56.2h-.12a.91.91,0,0,1-.61-.36c-.64-.87-1.76-4.52-1.15-6.48a4.55,4.55,0,0,1,2.12-2.61,1.55,1.55,0,0,1,1.13-.15A3,3,0,0,1,26.1,78,5.19,5.19,0,0,1,26.27,82Z"/></g></svg>