<svg xmlns="http://www.w3.org/2000/svg" viewBox="0 0 130 130"><defs><style>.cls-1{fill:#999;stroke:#fff;stroke-miterlimit:10;stroke-width:2px;}.cls-2{fill:#72edc2;}</style></defs><g id="Layer_1" data-name="Layer 1"><circle class="cls-1" cx="65" cy="65" r="61.72"/><path class="cls-2" d="M106.83,43.24v44.9a.9.9,0,0,1-.9.9H73.41a8.46,8.46,0,0,1-16.82,0H24.07a.9.9,0,0,1-.9-.9V43.24a.9.9,0,0,1,.6-.85l3.84-1.31V82.35a2.65,2.65,0,0,0,1.2,2.24,2.69,2.69,0,0,0,1.51.46,2.78,2.78,0,0,0,1.06-.21C34.3,83.59,38.47,83,43.78,83a128.72,128.72,0,0,1,20,1.94l.29,0,.92.14L65.9,85l.29,0a130,130,0,0,1,20-1.93c5.3,0,9.48.63,12.4,1.86a2.58,2.58,0,0,0,1.06.22,2.67,2.67,0,0,0,1.47-.43,2.72,2.72,0,0,0,1.23-2.27V41.08l3.84,1.31A.9.9,0,0,1,106.83,43.24Z"/><path class="cls-2" d="M100,35.56c-6.57-2.78-17.75-2.86-34.14-.22V83.13c16.2-2.63,27.14-2.62,33.44.05a.9.9,0,0,0,1.25-.83v-46A.9.9,0,0,0,100,35.56ZM93.78,72.65a41.27,41.27,0,0,0-7.6-.6,110.78,110.78,0,0,0-15.32,1.27h-.12a.9.9,0,0,1-.13-1.79,112.66,112.66,0,0,1,15.57-1.28,43.12,43.12,0,0,1,7.94.64.9.9,0,1,1-.34,1.76Zm0-9.51a41.2,41.2,0,0,0-7.6-.6A110.47,110.47,0,0,0,70.86,63.8h-.12a.9.9,0,0,1-.89-.78.89.89,0,0,1,.76-1,111,111,0,0,1,15.57-1.28,43.05,43.05,0,0,1,7.94.63.9.9,0,1,1-.34,1.77Zm0-9.52a41.27,41.27,0,0,0-7.6-.6,110.59,110.59,0,0,0-15.32,1.26h-.12a.9.9,0,0,1-.13-1.79,112.66,112.66,0,0,1,15.57-1.28,42.26,42.26,0,0,1,7.94.64.9.9,0,1,1-.34,1.76Zm0-9.51a41.11,41.11,0,0,0-7.6-.61,110.66,110.66,0,0,0-15.32,1.27h-.12a.9.9,0,0,1-.89-.78.89.89,0,0,1,.76-1A111.18,111.18,0,0,1,86.18,41.7a43,43,0,0,1,7.94.64.9.9,0,0,1,.72,1A.91.91,0,0,1,93.78,44.11Z"/><path class="cls-2" d="M64.1,35.34c-16.39-2.63-27.57-2.57-34.14.22a.9.9,0,0,0-.55.83v46a.91.91,0,0,0,1.26.83C37,80.51,47.9,80.5,64.1,83.12Zm-28.22,7a43.12,43.12,0,0,1,7.94-.64A111.07,111.07,0,0,1,59.39,43a.89.89,0,0,1,.77,1,.91.91,0,0,1-.89.78h-.13A110.66,110.66,0,0,0,43.82,43.5a41.11,41.11,0,0,0-7.6.61.9.9,0,0,1-1-.72A.88.88,0,0,1,35.88,42.34Zm23.39,31h-.13a110.66,110.66,0,0,0-15.32-1.27,41.35,41.35,0,0,0-7.6.6.9.9,0,0,1-.34-1.76,43.12,43.12,0,0,1,7.94-.64,112.54,112.54,0,0,1,15.57,1.28.9.9,0,0,1-.12,1.79Zm0-9.51h-.13a110.47,110.47,0,0,0-15.32-1.26,41.2,41.2,0,0,0-7.6.6.9.9,0,0,1-.34-1.77,43.2,43.2,0,0,1,7.94-.63A110.89,110.89,0,0,1,59.39,62a.9.9,0,0,1,.77,1A.91.91,0,0,1,59.27,63.81Zm0-9.52h-.13A110.47,110.47,0,0,0,43.82,53a41.35,41.35,0,0,0-7.6.6.9.9,0,0,1-.34-1.76,42.26,42.26,0,0,1,7.94-.64A112.54,112.54,0,0,1,59.39,52.5a.9.9,0,0,1-.12,1.79Z"/></g></svg>