<svg xmlns="http://www.w3.org/2000/svg" viewBox="0 0 130 130"><defs><style>.cls-1{fill:#999;stroke:#fff;stroke-miterlimit:10;stroke-width:2px;}.cls-2{fill:#72edc2;}</style></defs><g id="Layer_1" data-name="Layer 1"><circle class="cls-1" cx="65" cy="65" r="61.72"/><path class="cls-2" d="M64.46,30.55a.93.93,0,0,1-.93.62c-.11,0-10.45-.77-14.6,5.52-.13.18-2.74,4,1.19,7.74a.92.92,0,0,1,.28.64.88.88,0,0,1-.27.65l-6.89,6.9a.9.9,0,0,1-1.2.06s-2.91-2.32-5.76-1.83A6.9,6.9,0,0,0,33,52.62l-6.19-6.19c.25-.27.48-.56.69-.83a4.68,4.68,0,0,0,.7-2.74.89.89,0,0,1,.08-.43c.12-.29,3.22-7.13,13.08-13.15,11.26-6.88,22.65.16,22.76.23A.9.9,0,0,1,64.46,30.55Z"/><path class="cls-2" d="M32,56.86l-2.73,3.57a2.17,2.17,0,0,1-1.57.84h-.14A2.2,2.2,0,0,1,26,60.65l-7.17-7.18a2.15,2.15,0,0,1-.63-1.67,2.13,2.13,0,0,1,.84-1.56l3.57-2.74a2.18,2.18,0,0,1,2.84.19L31.82,54A2.17,2.17,0,0,1,32,56.86Z"/><path class="cls-2" d="M65.57,59.89a3.91,3.91,0,0,0-.59.5l-7.07,7.07a4,4,0,0,0-.5.6L43.76,54.41a2.66,2.66,0,0,0,.75-.52L51.36,47a2.7,2.7,0,0,0,.57-.78Z"/><path class="cls-2" d="M97.82,93.3l-7,7a3.25,3.25,0,0,1-4.31.27C75.07,91.63,66,82.6,58.85,73a3.27,3.27,0,0,1,.33-4.24l7.07-7.07a3.27,3.27,0,0,1,4.24-.33h0C80.12,68.5,89.15,77.55,98.08,89A3.25,3.25,0,0,1,97.82,93.3Z"/></g></svg>